HIERARCHY
ROOT Hips
{
  OFFSET 5.72205e-005 65.662 3.42586
  CHANNELS 6 Xposition Yposition Zposition Zrotation Xrotation Yrotation
  JOINT Chest
  {
    OFFSET 0 8.7983 -4.7612
    CHANNELS 6 Xposition Yposition Zposition Zrotation Xrotation Yrotation
    JOINT Chest2
    {
      OFFSET 0 8.0291 0.4195
      CHANNELS 6 Xposition Yposition Zposition Zrotation Xrotation Yrotation
      JOINT Chest3
      {
        OFFSET 0 9.9351 -2.2114
        CHANNELS 6 Xposition Yposition Zposition Zrotation Xrotation Yrotation
        JOINT Neck
        {
          OFFSET 0 22.3885 -0.4656
          CHANNELS 6 Xposition Yposition Zposition Zrotation Xrotation Yrotation
          JOINT Head
          {
            OFFSET -0.0001 12.643 3.4389
            CHANNELS 6 Xposition Yposition Zposition Zrotation Xrotation Yrotation
            End Site
            {
              OFFSET 0.0001 17.6655 0.5274
            }
          }
        }
        JOINT LeftCollar
        {
          OFFSET 2.2603 21.606 7.4023
          CHANNELS 6 Xposition Yposition Zposition Zrotation Xrotation Yrotation
          JOINT LeftShoulder
          {
            OFFSET 13.5163 -1.1332 -5.0146
            CHANNELS 6 Xposition Yposition Zposition Zrotation Xrotation Yrotation
            JOINT LeftElbow
            {
              OFFSET -0.0995 -28.05 -0.2431
              CHANNELS 6 Xposition Yposition Zposition Zrotation Xrotation Yrotation
              JOINT LeftWrist
              {
                OFFSET 0.0679 -23.3996 -0.1402
                CHANNELS 6 Xposition Yposition Zposition Zrotation Xrotation Yrotation
                JOINT LeftFinger1
                {
                  OFFSET 0.7932 -9.069 2.5189
                  CHANNELS 6 Xposition Yposition Zposition Zrotation Xrotation Yrotation
                  JOINT LeftFinger11
                  {
                    OFFSET -0.8272 -3.3923 0.5977
                    CHANNELS 6 Xposition Yposition Zposition Zrotation Xrotation Yrotation
                    JOINT LeftFinger12
                    {
                      OFFSET -0.5649 -2.3158 0.4082
                      CHANNELS 6 Xposition Yposition Zposition Zrotation Xrotation Yrotation
                      End Site
                      {
                        OFFSET -0.4919 -1.6479 0.2673
                      }
                    }
                  }
                }
                JOINT LeftFinger2
                {
                  OFFSET 0.9159 -9.2044 0.2193
                  CHANNELS 6 Xposition Yposition Zposition Zrotation Xrotation Yrotation
                  JOINT LeftFinger21
                  {
                    OFFSET 0.0117 -4.1944 -0.0248
                    CHANNELS 6 Xposition Yposition Zposition Zrotation Xrotation Yrotation
                    JOINT LeftFinger22
                    {
                      OFFSET 0.0071 -2.3249 -0.0142
                      CHANNELS 6 Xposition Yposition Zposition Zrotation Xrotation Yrotation
                      End Site
                      {
                        OFFSET -0.1475 -2.0882 0.0028
                      }
                    }
                  }
                }
                JOINT LeftFinger3
                {
                  OFFSET 0.6113 -8.7231 -2.0637
                  CHANNELS 6 Xposition Yposition Zposition Zrotation Xrotation Yrotation
                  JOINT LeftFinger31
                  {
                    OFFSET -0.1927 -3.8059 -0.2383
                    CHANNELS 6 Xposition Yposition Zposition Zrotation Xrotation Yrotation
                    JOINT LeftFinger32
                    {
                      OFFSET -0.1091 -2.1688 -0.1362
                      CHANNELS 6 Xposition Yposition Zposition Zrotation Xrotation Yrotation
                      End Site
                      {
                        OFFSET -0.2358 -1.9176 -0.0906
                      }
                    }
                  }
                }
                JOINT LeftFinger4
                {
                  OFFSET -0.6151 -8.0947 -3.5641
                  CHANNELS 6 Xposition Yposition Zposition Zrotation Xrotation Yrotation
                  JOINT LeftFinger41
                  {
                    OFFSET -0.4882 -2.341 -0.6462
                    CHANNELS 6 Xposition Yposition Zposition Zrotation Xrotation Yrotation
                    JOINT LeftFinger42
                    {
                      OFFSET -0.3575 -1.7167 -0.4742
                      CHANNELS 6 Xposition Yposition Zposition Zrotation Xrotation Yrotation
                      End Site
                      {
                        OFFSET -0.4187 -1.5237 -0.3496
                      }
                    }
                  }
                }
                JOINT LeftFinger0
                {
                  OFFSET -1.42 -1.8761 1.4223
                  CHANNELS 6 Xposition Yposition Zposition Zrotation Xrotation Yrotation
                  JOINT LeftFinger01
                  {
                    OFFSET -1.1471 -3.4929 2.6334
                    CHANNELS 6 Xposition Yposition Zposition Zrotation Xrotation Yrotation
                    JOINT LeftFinger02
                    {
                      OFFSET -0.823 -2.3 1.6571
                      CHANNELS 6 Xposition Yposition Zposition Zrotation Xrotation Yrotation
                      End Site
                      {
                        OFFSET -0.5822 -1.6914 1.1582
                      }
                    }
                  }
                }
              }
            }
          }
        }
        JOINT RightCollar
        {
          OFFSET -2.2603 21.606 7.4023
          CHANNELS 6 Xposition Yposition Zposition Zrotation Xrotation Yrotation
          JOINT RightShoulder
          {
            OFFSET -13.5187 -1.1334 -5.0155
            CHANNELS 6 Xposition Yposition Zposition Zrotation Xrotation Yrotation
            JOINT RightElbow
            {
              OFFSET 0.0994 -28.0499 -0.2431
              CHANNELS 6 Xposition Yposition Zposition Zrotation Xrotation Yrotation
              JOINT RightWrist
              {
                OFFSET -0.0679 -23.3996 -0.1402
                CHANNELS 6 Xposition Yposition Zposition Zrotation Xrotation Yrotation
                JOINT RightFinger1
                {
                  OFFSET -0.7932 -9.0691 2.5189
                  CHANNELS 6 Xposition Yposition Zposition Zrotation Xrotation Yrotation
                  JOINT RightFinger11
                  {
                    OFFSET 0.8272 -3.3923 0.5977
                    CHANNELS 6 Xposition Yposition Zposition Zrotation Xrotation Yrotation
                    JOINT RightFinger12
                    {
                      OFFSET 0.565 -2.3158 0.4082
                      CHANNELS 6 Xposition Yposition Zposition Zrotation Xrotation Yrotation
                      End Site
                      {
                        OFFSET 0.4919 -1.6479 0.2673
                      }
                    }
                  }
                }
                JOINT RightFinger2
                {
                  OFFSET -0.916 -9.2044 0.2193
                  CHANNELS 6 Xposition Yposition Zposition Zrotation Xrotation Yrotation
                  JOINT RightFinger21
                  {
                    OFFSET -0.0117 -4.1944 -0.0248
                    CHANNELS 6 Xposition Yposition Zposition Zrotation Xrotation Yrotation
                    JOINT RightFinger22
                    {
                      OFFSET -0.0071 -2.3249 -0.0142
                      CHANNELS 6 Xposition Yposition Zposition Zrotation Xrotation Yrotation
                      End Site
                      {
                        OFFSET 0.1475 -2.0882 0.0028
                      }
                    }
                  }
                }
                JOINT RightFinger3
                {
                  OFFSET -0.6113 -8.7231 -2.0637
                  CHANNELS 6 Xposition Yposition Zposition Zrotation Xrotation Yrotation
                  JOINT RightFinger31
                  {
                    OFFSET 0.1927 -3.8059 -0.2383
                    CHANNELS 6 Xposition Yposition Zposition Zrotation Xrotation Yrotation
                    JOINT RightFinger32
                    {
                      OFFSET 0.1091 -2.1688 -0.1362
                      CHANNELS 6 Xposition Yposition Zposition Zrotation Xrotation Yrotation
                      End Site
                      {
                        OFFSET 0.2358 -1.9176 -0.0906
                      }
                    }
                  }
                }
                JOINT RightFinger4
                {
                  OFFSET 0.6151 -8.0947 -3.564
                  CHANNELS 6 Xposition Yposition Zposition Zrotation Xrotation Yrotation
                  JOINT RightFinger41
                  {
                    OFFSET 0.4882 -2.341 -0.6462
                    CHANNELS 6 Xposition Yposition Zposition Zrotation Xrotation Yrotation
                    JOINT RightFinger42
                    {
                      OFFSET 0.3574 -1.7166 -0.4742
                      CHANNELS 6 Xposition Yposition Zposition Zrotation Xrotation Yrotation
                      End Site
                      {
                        OFFSET 0.4187 -1.5237 -0.3496
                      }
                    }
                  }
                }
                JOINT RightFinger0
                {
                  OFFSET 1.4199 -1.8761 1.4221
                  CHANNELS 6 Xposition Yposition Zposition Zrotation Xrotation Yrotation
                  JOINT RightFinger01
                  {
                    OFFSET 1.1472 -3.4929 2.6336
                    CHANNELS 6 Xposition Yposition Zposition Zrotation Xrotation Yrotation
                    JOINT RightFinger02
                    {
                      OFFSET 0.8229 -2.3 1.6571
                      CHANNELS 6 Xposition Yposition Zposition Zrotation Xrotation Yrotation
                      End Site
                      {
                        OFFSET 0.5822 -1.6914 1.1582
                      }
                    }
                  }
                }
              }
            }
          }
        }
      }
    }
  }
  JOINT RightHip
  {
    OFFSET -9.412 3.9771 -0.7758
    CHANNELS 6 Xposition Yposition Zposition Zrotation Xrotation Yrotation
    JOINT RightKnee
    {
      OFFSET -0.7531 -40.938 0
      CHANNELS 6 Xposition Yposition Zposition Zrotation Xrotation Yrotation
      JOINT RightAnkle
      {
        OFFSET 0 -40.1986 0
        CHANNELS 6 Xposition Yposition Zposition Zrotation Xrotation Yrotation
        JOINT RightToe
        {
          OFFSET 0 -4.4182 9.239
          CHANNELS 6 Xposition Yposition Zposition Zrotation Xrotation Yrotation
          End Site
          {
            OFFSET 0 0 6.1981
          }
        }
      }
    }
  }
  JOINT LeftHip
  {
    OFFSET 9.4119 3.9773 -0.7758
    CHANNELS 6 Xposition Yposition Zposition Zrotation Xrotation Yrotation
    JOINT LeftKnee
    {
      OFFSET 0.7532 -40.9383 0
      CHANNELS 6 Xposition Yposition Zposition Zrotation Xrotation Yrotation
      JOINT LeftAnkle
      {
        OFFSET 0 -40.1986 0
        CHANNELS 6 Xposition Yposition Zposition Zrotation Xrotation Yrotation
        JOINT LeftToe
        {
          OFFSET 0 -4.4182 9.239
          CHANNELS 6 Xposition Yposition Zposition Zrotation Xrotation Yrotation
          End Site
          {
            OFFSET 0 0 6.1981
          }
        }
      }
    }
  }
}
MOTION
Frames:	4
Frame Time:	0.0333333
5.72205e-005 65.662 3.42586 0 0 -0 0 8.7983 -4.7612 0 0 -0 0 8.0291 0.4195 0 0 -0 0 9.9351 -2.2114 0 0 -0 0 22.3885 -0.4656 0 0 -0 -0.0001 12.643 3.4389 0 0 -0 2.2603 21.606 7.4023 0 0 -12.5014 13.5163 -1.1332 -5.0146 88.1196 14.2451 10.6914 -0.0995 -28.05 -0.2431 -0.00160068 -0.00239207 0.000740045 0.0679 -23.3996 -0.1402 -8.4365e-005 7.00714e-005 -9.52055e-007 0.7932 -9.069 2.5189 9.93923e-017 -1.98785e-016 -1.59028e-015 -0.8272 -3.3923 0.5977 9.93923e-017 -5.96354e-016 -1.59028e-015 -0.5649 -2.3158 0.4082 -9.93923e-017 -5.96354e-016 -1.59028e-015 0.9159 -9.2044 0.2193 9.93923e-017 -1.98785e-016 -1.59028e-015 0.0117 -4.1944 -0.0248 -0.0128176 0.00232552 8.52707e-005 0.0071 -2.3249 -0.0142 9.93923e-017 5.96354e-016 -0 0.6113 -8.7231 -2.0637 9.93923e-017 -1.98785e-016 -1.59028e-015 -0.1927 -3.8059 -0.2383 -0.0160551 0.00299681 0.000857156 -0.1091 -2.1688 -0.1362 -2.48481e-016 0 3.18055e-015 -0.6151 -8.0947 -3.5641 9.93923e-017 -1.98785e-016 -1.59028e-015 -0.4882 -2.341 -0.6462 -0.0125865 0.0031206 0.00282719 -0.3575 -1.7167 -0.4742 0 1.98785e-016 -0 -1.42 -1.8761 1.4223 9.93923e-017 -1.98785e-016 -1.59028e-015 -1.1471 -3.4929 2.6334 9.93923e-017 -5.96354e-016 -1.59028e-015 -0.823 -2.3 1.6571 -9.93923e-017 -5.96354e-016 -1.59028e-015 -2.2603 21.606 7.4023 -0.865644 0.16582 7.03859 -13.5187 -1.1334 -5.0155 -88.0329 10.2057 -10.5567 0.0994 -28.0499 -0.2431 0.0015593 -0.00248883 -0.000788628 -0.0679 -23.3996 -0.1402 7.87605e-005 4.10553e-005 1.24965e-005 -0.7932 -9.0691 2.5189 -3.97569e-016 -7.95139e-016 3.18055e-015 0.8272 -3.3923 0.5977 -1.98785e-016 -3.97569e-016 3.18055e-015 0.565 -2.3158 0.4082 -1.98785e-016 0 3.18055e-015 -0.916 -9.2044 0.2193 -3.97569e-016 -7.95139e-016 3.18055e-015 -0.0117 -4.1944 -0.0248 0.0129473 0.00231697 -8.70038e-005 -0.0071 -2.3249 -0.0142 9.93923e-017 -7.95139e-016 1.59028e-015 -0.6113 -8.7231 -2.0637 -3.97569e-016 -7.95139e-016 3.18055e-015 0.1927 -3.8059 -0.2383 0.0163314 0.00303369 -0.000872333 0.1091 -2.1688 -0.1362 3.97569e-016 7.95139e-016 -3.18055e-015 0.6151 -8.0947 -3.564 -3.97569e-016 -7.95139e-016 3.18055e-015 0.4882 -2.341 -0.6462 0.0145763 0.00367772 -0.00326275 0.3574 -1.7166 -0.4742 9.93923e-017 -3.97569e-016 -0 1.4199 -1.8761 1.4221 -3.97569e-016 -7.95139e-016 3.18055e-015 1.1472 -3.4929 2.6336 -1.98785e-016 -3.97569e-016 3.18055e-015 0.8229 -2.3 1.6571 -1.98785e-016 0 3.18055e-015 -9.412 3.9771 -0.7758 3.42482 1.32465 -0.0626183 -0.7531 -40.938 0 0.000117508 0.717283 0.000978199 0 -40.1986 0 -3.4257 -2.04197 -0.0604716 8.88178e-016 -4.4182 9.239 6.47761e-025 0 -0 9.4119 3.9773 -0.7758 -3.42483 1.34017 0.0627307 0.7532 -40.9383 -2.22045e-016 -0.000193936 0.682302 -0.0013703 -8.88179e-016 -40.1986 0 3.42574 -2.02253 0.0595886 -8.88178e-016 -4.4182 9.239 -8.45714e-024 0 -7.40531e-025 
-21.3391 66.361 3.93114 -0.690324 -19.9006 77.5585 0 8.7983 -4.7612 -0.0281935 0.444515 -0.0914053 -3.55271e-015 8.0291 0.4195 -0.0556569 0.889045 -0.182626 -3.55271e-015 9.9351 -2.2114 -0.0556586 0.889065 -0.182659 3.55271e-015 22.3885 -0.4656 -3.49463e-005 -0.442026 -8.58234e-005 -0.0001 12.643 3.4389 -2.97017e-006 -0.190564 -1.65451e-005 2.2603 21.606 7.4023 -3.4117 0.167837 -2.30362 13.5163 -1.1332 -5.0146 80.9358 18.3137 50.9726 -0.0995 -28.05 -0.2431 -34.7232 -25.2289 -11.9088 0.0679 -23.3996 -0.1402 -8.14511 -1.71055 1.15181 0.7932 -9.06901 2.5189 -1.55871e-006 3.96605e-006 5.53385e-006 -0.8272 -3.3923 0.5977 6.4088e-006 -1.90556e-006 1.20033e-006 -0.5649 -2.3158 0.4082 -8.33337e-006 -6.56499e-006 -3.93862e-006 0.9159 -9.20441 0.2193 -1.55871e-006 3.96605e-006 5.53385e-006 0.0117 -4.1944 -0.0248 -0.0129243 0.00233415 7.99164e-005 0.0071 -2.3249 -0.0142 8.33255e-006 6.45426e-006 3.93897e-006 0.6113 -8.7231 -2.0637 -1.55871e-006 3.96605e-006 5.53385e-006 -0.1927 -3.8059 -0.2383 -0.0160085 0.00298142 0.000857915 -0.1091 -2.1688 -0.1362 3.18055e-015 -7.45443e-015 1.98785e-015 -0.6151 -8.0947 -3.5641 -1.55871e-006 3.96605e-006 5.53385e-006 -0.4882 -2.341 -0.6462 -0.0126754 0.0031488 0.00285447 -0.3575 -1.7167 -0.4742 4.66517e-006 2.8859e-006 -1.80104e-006 -1.42 -1.8761 1.4223 -1.55871e-006 3.96605e-006 5.53385e-006 -1.1471 -3.4929 2.6334 6.4088e-006 -1.90556e-006 1.20033e-006 -0.823 -2.3 1.6571 -8.33337e-006 -6.56499e-006 -3.93862e-006 -2.2603 21.606 7.4023 2.82339 0.334164 1.36315 -13.5187 -1.1334 -5.0155 -48.1977 14.2768 2.7865 0.0994 -28.0499 -0.2431 33.8233 -25.0364 11.6011 -0.0679 -23.3996 -0.1402 5.09165 0.923789 0.245889 -0.7932 -9.0691 2.5189 -6.36111e-015 -1.09332e-014 -5.36719e-015 0.8272 -3.3923 0.5977 -9.6287e-031 -1.08835e-014 -5.06901e-015 0.565 -2.3158 0.4082 -3.18055e-015 -1.11319e-014 -5.36719e-015 -0.916 -9.2044 0.2193 -6.36111e-015 -1.09332e-014 -5.36719e-015 -0.0117 -4.1944 -0.0248 0.0130032 0.00233212 -9.86138e-005 -0.0071 -2.3249 -0.0142 -3.18055e-015 6.4605e-016 4.96962e-016 -0.6113 -8.7231 -2.0637 -6.36111e-015 -1.09332e-014 -5.36719e-015 0.1927 -3.8059 -0.2383 0.0163861 0.00304575 -0.000886226 0.1091 -2.1688 -0.1362 6.36111e-015 1.49089e-016 9.93923e-017 0.6151 -8.0947 -3.564 -6.36111e-015 -1.09332e-014 -5.36719e-015 0.4882 -2.341 -0.6462 0.0145488 0.00366895 -0.00326514 0.3574 -1.7166 -0.4742 3.18055e-015 -4.96962e-017 9.93923e-017 1.4199 -1.8761 1.4221 -6.36111e-015 -1.09332e-014 -5.36719e-015 1.1472 -3.4929 2.6336 -9.6287e-031 -1.08835e-014 -5.06901e-015 0.8229 -2.3 1.6571 -3.18055e-015 -1.11319e-014 -5.36719e-015 -9.412 3.9771 -0.7758 -1.94689 0.3791 -6.55534 -0.7531 -40.938 -3.55271e-015 4.4648 12.3829 -1.26552 7.10543e-015 -40.1986 0 -9.3496 -7.31698 4.18882 0 -4.4182 9.239 4.89895e-007 -6.5188e-006 1.79372e-005 9.4119 3.9773 -0.7758 2.77934 3.40994 3.371 0.7532 -40.9383 0 -2.56128 5.5783 0.413316 0 -40.1986 3.55271e-015 5.97485 -3.77495 -1.64158 0 -4.4182 9.239 -8.29874e-007 -1.27653e-007 -3.06233e-008 
-31.8889 65.8685 -1.23557 2.0364 6.63212 90.652 1.77636e-015 8.7983 -4.7612 -0.0480336 0.652755 -0.130875 1.77636e-015 8.0291 0.4195 -0.0945837 1.30563 -0.261186 0 9.9351 -2.2114 -0.0945857 1.30563 -0.261193 0 22.3885 -0.4656 -1.17487e-006 -0.880865 -1.57398e-005 -0.0001 12.643 3.4389 -7.7613e-007 -0.275522 -1.87478e-005 2.2603 21.606 7.4023 -4.96618 0.238333 2.28552 13.5163 -1.1332 -5.0146 78.0039 20.0218 69.0242 -0.0995 -28.05 -0.2431 -50.2441 -36.9012 -17.0613 0.0679 -23.3996 -0.1402 -11.7383 -2.54744 1.83072 0.7932 -9.069 2.5189 -7.87296e-006 -5.17675e-006 -2.69092e-006 -0.8272 -3.3923 0.5977 4.14838e-006 -1.0927e-005 1.50676e-005 -0.5649 -2.3158 0.4082 2.40964e-006 -3.26364e-006 -1.32671e-006 0.9159 -9.2044 0.2193 -7.87296e-006 -5.17675e-006 -2.69092e-006 0.0117 -4.1944 -0.0248 -0.0128124 0.00233234 9.86308e-005 0.0071 -2.3249 -0.0142 -2.40924e-006 -1.82138e-005 1.32661e-006 0.6113 -8.7231 -2.0637 -7.87296e-006 -5.17675e-006 -2.69092e-006 -0.1927 -3.8059 -0.2383 -0.0160527 0.00298915 0.000867637 -0.1091 -2.1688 -0.1362 -3.18055e-015 -3.10218e-006 4.77083e-015 -0.6151 -8.0947 -3.5641 -7.87296e-006 -5.17675e-006 -2.69092e-006 -0.4882 -2.341 -0.6462 -0.0124706 0.00308851 0.0028111 -0.3575 -1.7167 -0.4742 3.27851e-006 3.8279e-006 6.87063e-006 -1.42 -1.8761 1.4223 -7.87296e-006 -5.17675e-006 -2.69092e-006 -1.1471 -3.4929 2.6334 4.14838e-006 -1.0927e-005 1.50676e-005 -0.823 -2.3 1.6571 2.40964e-006 -3.26364e-006 -1.32671e-006 -2.2603 21.606 7.4023 4.49157 0.407757 -1.19071 -13.5187 -1.1334 -5.0155 -30.2403 15.1376 9.44884 0.0994 -28.0499 -0.2431 49.1034 -36.4687 16.5872 -0.0679 -23.3996 -0.1402 7.38277 1.3457 0.330059 -0.7932 -9.0691 2.5189 -1.27222e-014 2.98177e-015 -5.96354e-016 0.8272 -3.3923 0.5977 1.50866e-031 -3.47873e-015 2.48481e-015 0.565 -2.3158 0.4082 -3.18055e-015 -3.8763e-015 1.68967e-015 -0.916 -9.2044 0.2193 -1.27222e-014 2.98177e-015 -5.96354e-016 -0.0117 -4.1944 -0.0248 0.0129831 0.00231065 -9.27641e-005 -0.0071 -2.3249 -0.0142 6.36111e-015 -2.28602e-015 -4.37326e-015 -0.6113 -8.7231 -2.0637 -1.27222e-014 2.98177e-015 -5.96354e-016 0.1927 -3.8059 -0.2383 0.0163197 0.00303284 -0.000865103 0.1091 -2.1688 -0.1362 9.54166e-015 1.68967e-015 -1.39149e-015 0.6151 -8.0947 -3.564 -1.27222e-014 2.98177e-015 -5.96354e-016 0.4882 -2.341 -0.6462 0.014542 0.00366309 -0.00326875 0.3574 -1.7166 -0.4742 3.18055e-015 -1.2921e-015 3.47873e-015 1.4199 -1.8761 1.4221 -1.27222e-014 2.98177e-015 -5.96354e-016 1.1472 -3.4929 2.6336 1.50866e-031 -3.47873e-015 2.48481e-015 0.8229 -2.3 1.6571 -3.18055e-015 -3.8763e-015 1.68967e-015 -9.412 3.9771 -0.7758 -3.6489 3.16671 -9.39541 -0.7531 -40.938 -7.10543e-015 6.44906 10.8085 -1.32041 -1.77636e-015 -40.1986 -7.10543e-015 -12.0448 -6.20131 6.37784 -1.38778e-016 -4.4182 9.239 -1.49563e-006 8.66342e-007 -6.27753e-008 9.4119 3.9773 -0.7758 5.68316 1.39613 4.8978 0.7532 -40.9383 7.10543e-015 -3.80415 13.5605 0.8847 -7.10543e-015 -40.1986 0 7.13174 -7.50384 -2.26494 -3.55271e-015 -4.4182 9.239 1.68382e-006 -5.15199e-007 -2.7894e-007 
-29.4988 65.8165 -0.0733824 1.71969 -0.00248308 89.9994 -1.38778e-017 8.7983 -4.7612 -0.0432874 0.623701 -0.122309 -1.38778e-017 8.0291 0.4195 -0.0852486 1.24887 -0.244213 -5.55112e-017 9.9351 -2.2114 -0.0852487 1.24889 -0.244194 -1.11022e-016 22.3885 -0.4656 -3.57214e-005 -1.3146 -0.000104814 -0.0001 12.643 3.4389 6.15661e-008 -0.254868 3.00909e-005 2.2603 21.606 7.4023 -4.61976 0.223357 1.26568 13.5163 -1.1332 -5.0146 78.6381 19.642 65.0192 -0.0995 -28.05 -0.2431 -46.8117 -34.2755 -15.9204 0.0679 -23.3996 -0.1402 -10.7734 -2.51929 1.90714 0.7932 -9.069 2.5189 -9.54166e-015 -1.59028e-015 -1.59028e-015 -0.8272 -3.3923 0.5977 -6.36111e-015 0 1.59028e-015 -0.5649 -2.3158 0.4082 -6.36111e-015 -3.18055e-015 1.59028e-015 0.9159 -9.2044 0.2193 -9.54166e-015 -1.59028e-015 -1.59028e-015 0.0117 -4.1944 -0.0248 -0.0128335 0.00233202 8.88631e-005 0.0071 -2.3249 -0.0142 3.18055e-015 -4.77083e-015 3.18055e-015 0.6113 -8.7231 -2.0637 -9.54166e-015 -1.59028e-015 -1.59028e-015 -0.1927 -3.8059 -0.2383 -0.0159865 0.00298343 0.000866861 -0.1091 -2.1688 -0.1362 -4.41391e-032 1.59028e-015 1.59028e-015 -0.6151 -8.0947 -3.5641 -9.54166e-015 -1.59028e-015 -1.59028e-015 -0.4882 -2.341 -0.6462 -0.0126485 0.00313139 0.00283887 -0.3575 -1.7167 -0.4742 3.18055e-015 3.18055e-015 3.18055e-015 -1.42 -1.8761 1.4223 -9.54166e-015 -1.59028e-015 -1.59028e-015 -1.1471 -3.4929 2.6334 -6.36111e-015 0 1.59028e-015 -0.823 -2.3 1.6571 -6.36111e-015 -3.18055e-015 1.59028e-015 -2.2603 21.606 7.4023 4.12041 0.391842 -0.623252 -13.5187 -1.1334 -5.0155 -34.225 14.987 7.91817 0.0994 -28.0499 -0.2431 45.7172 -33.9045 15.4861 -0.0679 -23.3996 -0.1402 6.87393 1.25127 0.313099 -0.7932 -9.0691 2.5189 7.72434e-032 -1.39149e-015 3.18055e-015 0.8272 -3.3923 0.5977 -3.18055e-015 3.18055e-015 3.97569e-015 0.565 -2.3158 0.4082 -3.18055e-015 -3.97569e-015 4.77083e-015 -0.916 -9.2044 0.2193 7.72434e-032 -1.39149e-015 3.18055e-015 -0.0117 -4.1944 -0.0248 0.0129455 0.00231221 -7.83683e-005 -0.0071 -2.3249 -0.0142 8.27607e-033 5.96354e-016 -7.95139e-016 -0.6113 -8.7231 -2.0637 7.72434e-032 -1.39149e-015 3.18055e-015 0.1927 -3.8059 -0.2383 0.0163226 0.00302672 -0.000873217 0.1091 -2.1688 -0.1362 3.18055e-015 -1.19271e-015 2.38542e-015 0.6151 -8.0947 -3.564 7.72434e-032 -1.39149e-015 3.18055e-015 0.4882 -2.341 -0.6462 0.0146043 0.00368847 -0.00326422 0.3574 -1.7166 -0.4742 -3.18055e-015 -3.37934e-015 1.59028e-015 1.4199 -1.8761 1.4221 7.72434e-032 -1.39149e-015 3.18055e-015 1.1472 -3.4929 2.6336 -3.18055e-015 3.18055e-015 3.97569e-015 0.8229 -2.3 1.6571 -3.18055e-015 -3.97569e-015 4.77083e-015 -9.412 3.9771 -0.7758 -3.24767 2.43058 -8.78129 -0.7531 -40.938 -3.55271e-015 6.00467 10.8489 -1.30378 0 -40.1986 0 -11.4794 -6.30509 5.89432 0 -4.4182 9.239 -0 -1.35734e-008 -0 9.4119 3.9773 -0.7758 4.96541 1.81298 4.56711 0.7532 -40.9383 3.55271e-015 -3.51156 11.2774 0.739073 0 -40.1986 0 6.91425 -6.41753 -2.1371 -1.77636e-015 -4.4182 9.239 -8.41907e-007 -1.33439e-006 -7.30243e-008 
